<?xml version="1.0" encoding="utf-8"?>
<!-- Generator: Adobe Illustrator 25.0.1, SVG Export Plug-In . SVG Version: 6.00 Build 0)  -->
<svg version="1.1" id="图层_1" xmlns="http://www.w3.org/2000/svg" xmlns:xlink="http://www.w3.org/1999/xlink" x="0px" y="0px"
	 viewBox="0 0 3300 2200" style="enable-background:new 0 0 3300 2200;" xml:space="preserve">
<style type="text/css">
	.st0{fill:#FFFFFF;}
	.st1{fill:none;stroke:#000000;stroke-width:0.5;}
	.st2{font-family:'Helvetica-Bold';}
	.st3{font-size:13px;}
	.st4{font-family:'Helvetica';}
	.st5{fill:none;stroke:#00AEEF;stroke-width:0.5;}
	.st6{fill:#27AAE1;}
	.st7{fill:none;stroke:#27AAE1;stroke-width:0.5;}
</style>
<g id="Notes">
	<rect id="artboard" class="st0" width="3300" height="2200"/>
	<line class="st1" x1="263" y1="292" x2="3036" y2="292"/>
	<text transform="matrix(1 0 0 1 263 322)" class="st2 st3">Weight/Scale Variations</text>
	<text transform="matrix(1 0 0 1 534.0632935 322)" class="st4 st3">Ultralight</text>
	<text transform="matrix(1 0 0 1 843.7774658 322)" class="st4 st3">Thin</text>
	<text transform="matrix(1 0 0 1 1139.0350342 322)" class="st4 st3">Light</text>
	<text transform="matrix(1 0 0 1 1427.0772705 322)" class="st4 st3">Regular</text>
	<text transform="matrix(1 0 0 1 1723.4418945 322)" class="st4 st3">Medium</text>
	<text transform="matrix(1 0 0 1 2016.171875 322)" class="st4 st3">Semibold</text>
	<text transform="matrix(1 0 0 1 2326.970459 322)" class="st4 st3">Bold</text>
	<text transform="matrix(1 0 0 1 2618.2658691 322)" class="st4 st3">Heavy</text>
	<text transform="matrix(1 0 0 1 2917.5053711 322)" class="st4 st3">Black</text>
	<line class="st1" x1="263" y1="1903" x2="3036" y2="1903"/>
	<g transform="matrix(1 0 0 1 263 1933)">
		<path d="M9.2480497,0.830078c4.3066502,0,7.8906507-3.5742178,7.8906507-7.8808579
			c0-4.3066201-3.5938005-7.8808198-7.9004202-7.8808198c-4.2968702,0-7.8710904,3.5741997-7.8710904,7.8808198
			C1.36719-2.7441399,4.95117,0.830078,9.2480497,0.830078z M9.2480497-0.654297
			c-3.5449295,0-6.3769598-2.8417931-6.3769598-6.3964829c0-3.5547204,2.8222699-6.3965201,6.3671904-6.3965201
			c3.5547199,0,6.4062195,2.8417997,6.4062195,6.3965201C15.6444998-3.4960899,12.8027-0.654297,9.2480497-0.654297z
			 M5.6543002-7.0507798c0,0.4296899,0.3027296,0.7226596,0.7519498,0.7226596h2.0996103v2.1191401
			c0,0.43945,0.2929697,0.7421801,0.7226601,0.7421801c0.4492092,0,0.7421799-0.3027301,0.7421799-0.7421801v-2.1191401h2.1190996
			c0.4394999,0,0.7421999-0.2929697,0.7421999-0.7226596c0-0.4394503-0.3027-0.7421904-0.7421999-0.7421904H9.9707003v-2.1093698
			c0-0.4492598-0.2929707-0.7519598-0.7421799-0.7519598c-0.4296904,0-0.7226601,0.3027-0.7226601,0.7519598v2.1093698H6.40625
			C5.9570298-7.7929702,5.6543002-7.4902301,5.6543002-7.0507798z"/>
	</g>
	<g transform="matrix(1 0 0 1 281.867 1933)">
		<path d="M11.7089996,2.9101601c5.4491997,0,9.9609013-4.5214901,9.9609013-9.9609394
			c0-5.4492207-4.5215015-9.9609203-9.9707012-9.9609203c-5.4394288,0-9.951149,4.5116997-9.951149,9.9609203
			C1.7480507-1.61133,6.2695308,2.9101601,11.7089996,2.9101601z M11.7089996,1.25
			c-4.6093888,0-8.291029-3.6914101-8.291029-8.3007793c0-4.6094208,3.6718702-8.3008194,8.281229-8.3008194
			c4.6093998,0,8.3106003,3.6913996,8.3106003,8.3008194C20.0098-2.4414101,16.3183994,1.25,11.7089996,1.25z M7.177731-7.0507798
			C7.177731-6.5722699,7.5097709-6.25,8.0078096-6.25h2.8710899v2.8808601c0,0.4882798,0.3320007,0.8300798,0.8106003,0.8300798
			c0.4882002,0,0.8299999-0.3320298,0.8299999-0.8300798V-6.25h2.8809004c0.4882994,0,0.8300991-0.3222699,0.8300991-0.8007798
			c0-0.4882803-0.3417997-0.83008-0.8300991-0.83008h-2.8809004v-2.87114c0-0.4980001-0.3417997-0.8397999-0.8299999-0.8397999
			c-0.4785995,0-0.8106003,0.3417997-0.8106003,0.8397999v2.87114H8.0078096
			C7.5097709-7.8808599,7.177731-7.5390601,7.177731-7.0507798z"/>
	</g>
	<g transform="matrix(1 0 0 1 305.646 1933)">
		<path d="M14.9707003,5.6640601c6.9628992,0,12.7245989-5.7617164,12.7245989-12.7148399
			c0-6.9629197-5.7714996-12.7246208-12.7343988-12.7246208c-6.9530907,0-12.70504,5.7617006-12.70504,12.7246208
			C2.2558601-0.0976562,8.01758,5.6640601,14.9707003,5.6640601z M14.9707003,3.8476601
			c-6.0351505,0-10.88867-4.8632803-10.88867-10.8984394c0-6.04492,4.843751-10.8984203,10.87887-10.8984203
			c6.0449991,0,10.9082003,4.8534994,10.9082003,10.8984203C25.8691006-1.01562,21.0156002,3.8476601,14.9707003,3.8476601z
			 M9.1992197-7.0507798c0,0.51758,0.3710899,0.8789001,0.9179802,0.8789001H14.0625V-2.2168
			c0,0.53711,0.3711004,0.9179699,0.8886995,0.9179699c0.5371008,0,0.9082003-0.3710899,0.9082003-0.9179699v-3.9550798h3.955101
			c0.5370998,0,0.9179001-0.36132,0.9179001-0.8789001c0-0.5468802-0.3711014-0.9179702-0.9179001-0.9179702h-3.955101v-3.9453497
			c0-0.5468006-0.3710995-0.9277-0.9082003-0.9277c-0.5175991,0-0.8886995,0.3808994-0.8886995,0.9277V-7.96875h-3.9453001
			C9.5703096-7.96875,9.1992197-7.5976601,9.1992197-7.0507798z"/>
	</g>
	<text transform="matrix(1 0 0 1 263 1953)" class="st2 st3">Design Variations</text>
	<text transform="matrix(1 0 0 1 263 1971)" class="st4 st3">Symbols are supported in up to nine weights and three scales.</text>
	<text transform="matrix(1 0 0 1 263 1989)" class="st4 st3">For optimal layout with text and other symbols, vertically align</text>
	<text transform="matrix(1 0 0 1 263 2007)" class="st4 st3">symbols with the adjacent text.</text>
	<line class="st5" x1="776" y1="1919" x2="776" y2="1933"/>
	<g transform="matrix(1 0 0 1 776 1933)">
		<path d="M3.31055,0.15625c0.51757,0,0.7714798-0.1953125,0.9570301-0.742188l1.2597599-3.4472618h5.7617598l1.2597008,3.4472618
			c0.1855993,0.5468755,0.4394999,0.742188,0.9473,0.742188c0.5175991,0,0.8495998-0.3125,0.8495998-0.800781
			c0-0.166016-0.0293007-0.322266-0.1073999-0.527349L9.6582003-13.3690996c-0.2246103-0.5957003-0.625-0.8985004-1.25-0.8985004
			c-0.6054702,0-1.0156202,0.2930002-1.2304702,0.8887005L2.5976601-1.16211c-0.07813,0.205079-0.10743,0.361329-0.10743,0.527344
			C2.4902301-0.146484,2.8027301,0.15625,3.31055,0.15625z M6.0058599-5.51758l2.3730502-6.5722198h0.0488195L10.8008003-5.51758
			H6.0058599z"/>
	</g>
	<line class="st5" x1="793.1970215" y1="1919" x2="793.1970215" y2="1933"/>
	<text transform="matrix(1 0 0 1 776 1953)" class="st2 st3">Margins</text>
	<text transform="matrix(1 0 0 1 776 1971)" class="st4 st3">Leading and trailing margins on the left and right side of each symbol</text>
	<text transform="matrix(1 0 0 1 776 1989)" class="st4 st3">can be adjusted by modifying the x-location of the margin guidelines.</text>
	<text transform="matrix(1 0 0 1 776 2007)" class="st4 st3">Modifications are automatically applied proportionally to all</text>
	<text transform="matrix(1 0 0 1 776 2025)" class="st4 st3">scales and weights.</text>
	<g transform="matrix(1 0 0 1 1289 1933)">
		<path d="M2.8418,1.86523l1.6992199,1.70899c0.8593702,0.8691399,1.8457003,0.81055,2.7734299-0.2148399L18.0077991-8.4277296
			l-0.9667988-0.9765701L6.4257798,2.2753899c-0.3515596,0.4003901-0.6835899,0.49805-1.1523399,0.0293L4.1015601,1.14258
			c-0.46875-0.458986-0.36133-0.800783,0.0390601-1.1621113L15.6152-10.8203001l-0.9765005-0.9667997L3.04688-0.898438
			C2.06055,0.0195312,1.98242,0.996094,2.8418,1.86523z M9.2578096-16.3281002
			c-0.41992,0.4101-0.4492197,0.9863005-0.2148399,1.3769007c0.2343702,0.3613997,0.6933603,0.5956993,1.3379307,0.4296999
			c1.4647999-0.3418007,2.9881992-0.4004002,4.4139996,0.5370998l-0.5859003,1.4551001
			c-0.3417997,0.8301001-0.1659994,1.4159994,0.3711004,1.9629002L16.875-8.2519503
			c0.4883003,0.4882803,0.8983994,0.5078101,1.4647999,0.4101501l1.0645008-0.1953101l0.6640987,0.6738305l-0.0390987,0.5566397
			c-0.0391006,0.4980502,0.0879002,0.8789101,0.5761986,1.35742l0.7617016,0.7421904
			c0.4784985,0.4785099,1.0936985,0.5078096,1.5625,0.0390596l2.910099-2.91992
			c0.4687996-0.4687495,0.4493008-1.0644498-0.0293007-1.5429702L25.0391006-9.89258
			c-0.4786015-0.4785204-0.8495998-0.6347198-1.3282013-0.5957203L23.1348-10.4394999L22.4902-11.0741997L22.7343998-12.1973
			c0.1268997-0.5663996-0.0293007-1.0058002-0.6152992-1.5917997l-2.1972008-2.1875
			C16.5820007-19.2968998,12.1484003-19.2187996,9.2578096-16.3281002z M10.7519999-15.9569998
			c2.4316006-1.7774,5.7226-1.4746008,7.9492006,0.7518997l2.4315987,2.4120998
			c0.2344017,0.2343998,0.2734013,0.4200001,0.205101,0.7617998l-0.3223,1.4843006L22.5195007-9.0625l0.9863987-0.0585899
			C23.7598-9.1308603,23.8379002-9.11133,24.0331993-8.9160204l0.5762005,0.5761805l-2.4414005,2.4414001l-0.5761986-0.57617
			c-0.1953011-0.1953101-0.2245998-0.2734404-0.2147999-0.5371103l0.0682983-0.9765596l-1.4940987-1.4843802L18.4277-9.21875
			c-0.3222008,0.0683603-0.4687004,0.0390596-0.7129002-0.1953096l-2.0018997-2.0019407
			c-0.2539005-0.2343998-0.2832003-0.4003992-0.1269999-0.7714996l0.8788996-2.0897999
			c-1.5625-1.4551001-3.5936995-2.080101-5.625-1.4843998C10.6836004-15.7227001,10.625-15.8495998,10.7519999-15.9569998z"/>
	</g>
	<text transform="matrix(1 0 0 1 1289 1953)" class="st2 st3">Exporting</text>
	<text transform="matrix(1 0 0 1 1289 1971)" class="st4 st3">Symbols should be outlined when exporting to ensure the</text>
	<text transform="matrix(1 0 0 1 1289 1989)" class="st4 st3">design is preserved when submitting to Xcode.</text>
	<text id="template-version" transform="matrix(1 0 0 1 2952.4140625 1933)" class="st4 st3">Template v.4.0</text>
	<text transform="matrix(1 0 0 1 2865.4575195 1951)" class="st4 st3">Requires Xcode 14 or greater</text>
	<text id="descriptive-name" transform="matrix(1 0 0 1 2826.4448242 1969)" class="st4 st3">Generated from custom.shippingbox</text>
	<text transform="matrix(1 0 0 1 2912.4111328 1987)" class="st4 st3">Typeset at 100 points</text>
	<text transform="matrix(1 0 0 1 263 726)" class="st4 st3">Small</text>
	<text transform="matrix(1 0 0 1 263 1156)" class="st4 st3">Medium</text>
	<text transform="matrix(1 0 0 1 263 1586)" class="st4 st3">Large</text>
</g>
<g id="Guides">
	<g id="H-reference" transform="matrix(1 0 0 1 339 696)">
		<path class="st6" d="M0.993654,0h2.6440959l25.6903496-67.1323013h0.7021999v-3.3266983h-1.9076996L0.993654,0z
			 M11.6885004-24.4799004h35.2929993l-0.75-2.2486H12.4385004L11.6885004-24.4799004z M55.1195984,0h2.6441002
			L30.6382008-70.4589996H29.4326v3.3266983L55.1195984,0z"/>
	</g>
	<line id="Baseline-S" class="st7" x1="263" y1="696" x2="3036" y2="696"/>
	<line id="Capline-S" class="st7" x1="263" y1="625.5410156" x2="3036" y2="625.5410156"/>
	<g id="H-reference_1_" transform="matrix(1 0 0 1 339 1126)">
		<path class="st6" d="M0.993654,0h2.6440959l25.6903496-67.1323013h0.7021999v-3.3266983h-1.9076996L0.993654,0z
			 M11.6885004-24.4799004h35.2929993l-0.75-2.2486H12.4385004L11.6885004-24.4799004z M55.1195984,0h2.6441002
			L30.6382008-70.4589996H29.4326v3.3266983L55.1195984,0z"/>
	</g>
	<line id="Baseline-M" class="st7" x1="263" y1="1126" x2="3036" y2="1126"/>
	<line id="Capline-M" class="st7" x1="263" y1="1055.5400391" x2="3036" y2="1055.5400391"/>
	<g id="H-reference_2_" transform="matrix(1 0 0 1 339 1556)">
		<path class="st6" d="M0.993654,0h2.6440959l25.6903496-67.1323013h0.7021999v-3.3266983h-1.9076996L0.993654,0z
			 M11.6885004-24.4799004h35.2929993l-0.75-2.2486H12.4385004L11.6885004-24.4799004z M55.1195984,0h2.6441002
			L30.6382008-70.4589996H29.4326v3.3266983L55.1195984,0z"/>
	</g>
	<line id="Baseline-L" class="st7" x1="263" y1="1556" x2="3036" y2="1556"/>
	<line id="Capline-L" class="st7" x1="263" y1="1485.5400391" x2="3036" y2="1485.5400391"/>
	<line id="left-margin-Ultralight-S" class="st5" x1="512.4619751" y1="600.7849731" x2="512.4619751" y2="720.1209717"/>
	<line id="right-margin-Ultralight-S" class="st5" x1="606.9609985" y1="600.7849731" x2="606.9609985" y2="720.1209717"/>
	<line id="left-margin-Regular-S" class="st5" x1="1401.1899414" y1="600.7849731" x2="1401.1899414" y2="720.1209717"/>
	<line id="right-margin-Regular-S" class="st5" x1="1498.5" y1="600.7849731" x2="1498.5" y2="720.1209717"/>
	<line id="left-margin-Black-S" class="st5" x1="2883.0100098" y1="600.7849731" x2="2883.0100098" y2="720.1209717"/>
	<line id="right-margin-Black-S" class="st5" x1="2983.7900391" y1="600.7849731" x2="2983.7900391" y2="720.1209717"/>
</g>
<g id="Symbols">
	<g id="Black-S">
		<path d="M2898.9768066,686.625l31.2011719,16.1621094c1.8554688,0.9765625,4.5898438,0.9765625,6.4453125,0L2967.8244629,686.625
			c4.4921875-2.343811,6.2011719-5.1757812,6.2011719-10.156189v-34.1309204c0-4.5410156-1.7578125-7.6171875-6.1035156-9.8632812
			l-26.0742188-13.6229858c-5.1757812-2.734436-11.71875-2.734436-16.8945312,0l-26.0742188,13.6229858
			c-4.3457031,2.2460938-6.1035156,5.3222656-6.1035156,9.8632812v34.1309204
			C2892.7756348,681.4492188,2894.4846191,684.281189,2898.9768066,686.625z M2906.5939941,676.6641235
			c-1.5136719-0.8301392-2.0996094-1.7579346-2.0996094-3.2715454v-22.9980469l22.7539062,11.8163452v25.4883423
			L2906.5939941,676.6641235z M2962.3068848,650.3945312v22.9980469c0,1.5136108-0.5859375,2.4414062-2.0996094,3.2715454
			l-20.6542969,11.0350952v-25.4883423l4.2817383-2.2281494v1.9515991c0,3.9360962,3.1765137,7.1125488,7.1125488,7.1125488
			c3.9016113-0.0345459,7.0778809-3.1419067,7.0778809-7.0779419v-9.3511353L2962.3068848,650.3945312z M2933.4006348,651.5175781
			l-22.1679688-11.5722656l5.0292969-2.5878906l22.3144531,11.4746094L2933.4006348,651.5175781z M2951.1252441,642.2401733
			l-22.0703125-11.5722046l1.3671875-0.6835938c1.9042969-0.9765625,4.0039062-0.9765625,5.9570312,0l19.1894531,9.9609375
			L2951.1252441,642.2401733z"/>
	</g>
	<g id="Regular-S">
		<path d="M1406.8195801,684.4480591l29.7851562,17.0410767c2.2949219,1.3183594,4.3945312,1.3183594,6.640625,0
			l29.7851562-17.0410767c3.7109375-2.1483765,5.8105469-4.1991577,5.8105469-10.3026733v-29.4921875
			c0-4.4434204-1.6113281-7.1777344-5.2246094-9.3262329l-26.1230469-14.9901733
			c-5.1269531-2.8809204-9.9609375-2.8809204-15.0878906,0l-26.1230469,14.9901733
			c-3.6621094,2.1484985-5.2246094,4.8828125-5.2246094,9.3262329v29.4921875
			C1401.0578613,680.2489014,1403.1574707,682.2996826,1406.8195801,684.4480591z M1410.5793457,678.6375732
			c-2.0996094-1.2695923-2.9296875-2.5390625-2.9296875-4.6875v-27.9296875l28.8574219,16.6992188v30.859375
			L1410.5793457,678.6375732z M1472.2492676,646.0203857v27.9296875c0,2.1484375-0.8789062,3.4179077-2.9296875,4.6875
			l-25.9277344,14.9414062v-30.859375l10.9072266-6.3255615v9.8839111c0,1.9334717,1.5882568,3.5217285,3.5217285,3.5217285
			s3.5217285-1.5882568,3.5217285-3.5217285l-0.0345459-13.9328613L1472.2492676,646.0203857z M1439.9250488,656.6160889
			l-28.4179688-16.2598267l10.8398438-6.2987671l28.3691406,16.3573608L1439.9250488,656.6160889z M1457.7473145,646.4110107
			l-28.5644531-16.2598267l5.9571533-3.4179077c3.3201904-1.9042969,6.2987061-1.953064,9.5701904,0l23.6816406,13.6229858
			L1457.7473145,646.4110107z"/>
	</g>
	<g id="Ultralight-S">
		<path d="M525.7642822,682.3652954l31.465271,17.1317749c1.6592407,0.8643188,3.2139282,0.909729,4.9604492,0
			l31.4653931-17.1317749c2.6210938-1.4672852,3.539978-3.0640259,3.539978-5.9434204v-33.8515625
			c0-1.6733398-0.9755859-2.8184204-2.4091797-3.6499023l-31.2089233-17.2607422
			c-2.4478149-1.3823853-5.2838135-1.3823853-7.7315063,0l-31.2089844,17.2607422
			c-1.4370117,0.8314819-2.4091797,1.9765625-2.4091797,3.6499023v33.8515625
			C522.2276001,679.3012695,523.1011963,680.8980103,525.7642822,682.3652954z M527.6621704,680.9141235
			c-2.6898804-1.4512329-3.065918-2.4937134-3.065918-4.6875v-33.015625l33.9432983,18.4248047v35.8998413L527.6621704,680.9141235z
			 M578.9451904,651.8189087l15.8814697-8.6079102v33.015625c0,2.1937866-0.3793945,3.2362671-3.065918,4.6875
			l-30.9227905,16.621521v-35.8998413l15.8883667-8.6142578l-0.0074463,15.2365112
			c0.0320435,0.6169434,0.5285645,1.0493164,1.0813599,1.0812988c0.6491089,0,1.1455688-0.4963379,1.1455688-1.1455078
			L578.9451904,651.8189087z M559.6870728,659.7098999l-34.4575195-18.6663818l16.3799438-9.0234985l34.6356812,18.71875
			L559.6870728,659.7098999z M578.553772,649.5048828l-34.6494141-18.7572632l13.5405273-7.4595337
			c1.4584961-0.8598633,3.074707-0.8632812,4.5297852,0l32.1732788,17.7554321L578.553772,649.5048828z"/>
	</g>
</g>
<path d="M2282.9038086,649.5722046"/>
</svg>
