<?xml version="1.0" encoding="utf-8"?>
<!-- Generator: Adobe Illustrator 25.0.1, SVG Export Plug-In . SVG Version: 6.00 Build 0)  -->
<!DOCTYPE svg PUBLIC "-//W3C//DTD SVG 1.1//EN" "http://www.w3.org/Graphics/SVG/1.1/DTD/svg11.dtd" [
	<!ENTITY ns_extend "http://ns.adobe.com/Extensibility/1.0/">
	<!ENTITY ns_ai "http://ns.adobe.com/AdobeIllustrator/10.0/">
	<!ENTITY ns_graphs "http://ns.adobe.com/Graphs/1.0/">
	<!ENTITY ns_vars "http://ns.adobe.com/Variables/1.0/">
	<!ENTITY ns_imrep "http://ns.adobe.com/ImageReplacement/1.0/">
	<!ENTITY ns_sfw "http://ns.adobe.com/SaveForWeb/1.0/">
	<!ENTITY ns_custom "http://ns.adobe.com/GenericCustomNamespace/1.0/">
	<!ENTITY ns_adobe_xpath "http://ns.adobe.com/XPath/1.0/">
]>
<svg version="1.1" id="图层_1" xmlns:x="&ns_extend;" xmlns:i="&ns_ai;" xmlns:graph="&ns_graphs;"
	 xmlns="http://www.w3.org/2000/svg" xmlns:xlink="http://www.w3.org/1999/xlink" x="0px" y="0px" viewBox="0 0 3300 2200"
	 style="enable-background:new 0 0 3300 2200;" xml:space="preserve">
<style type="text/css">
	.st0{fill:#FFFFFF;}
	.st1{fill:none;stroke:#000000;stroke-width:0.5;}
	.st2{font-family:'Helvetica-Bold';}
	.st3{font-size:13px;}
	.st4{font-family:'Helvetica';}
	.st5{fill:none;stroke:#00AEEF;stroke-width:0.5;}
	.st6{fill:#27AAE1;}
	.st7{fill:none;stroke:#27AAE1;stroke-width:0.5;}
</style>
<metadata>
	<sfw  xmlns="&ns_sfw;">
		<slices></slices>
		<sliceSourceBounds  bottomLeftOrigin="true" height="2200" width="3300" x="0" y="0"></sliceSourceBounds>
	</sfw>
</metadata>
<g id="Notes">
	<rect id="artboard" class="st0" width="3300" height="2200"/>
	<line class="st1" x1="263" y1="292" x2="3036" y2="292"/>
	<text transform="matrix(1 0 0 1 263 322)" class="st2 st3">Weight/Scale Variations</text>
	<text transform="matrix(1 0 0 1 534.0632935 322)" class="st4 st3">Ultralight</text>
	<text transform="matrix(1 0 0 1 843.7774658 322)" class="st4 st3">Thin</text>
	<text transform="matrix(1 0 0 1 1139.0350342 322)" class="st4 st3">Light</text>
	<text transform="matrix(1 0 0 1 1427.0772705 322)" class="st4 st3">Regular</text>
	<text transform="matrix(1 0 0 1 1723.4418945 322)" class="st4 st3">Medium</text>
	<text transform="matrix(1 0 0 1 2016.171875 322)" class="st4 st3">Semibold</text>
	<text transform="matrix(1 0 0 1 2326.970459 322)" class="st4 st3">Bold</text>
	<text transform="matrix(1 0 0 1 2618.2658691 322)" class="st4 st3">Heavy</text>
	<text transform="matrix(1 0 0 1 2917.5053711 322)" class="st4 st3">Black</text>
	<line class="st1" x1="263" y1="1903" x2="3036" y2="1903"/>
	<g transform="matrix(1 0 0 1 263 1933)">
		<path d="M9.2480497,0.830078c4.3066502,0,7.8906507-3.5742178,7.8906507-7.8808579
			c0-4.3066201-3.5938005-7.8808198-7.9004202-7.8808198c-4.2968702,0-7.8710904,3.5741997-7.8710904,7.8808198
			C1.36719-2.7441399,4.95117,0.830078,9.2480497,0.830078z M9.2480497-0.654297
			c-3.5449295,0-6.3769598-2.8417931-6.3769598-6.3964829c0-3.5547204,2.8222699-6.3965201,6.3671904-6.3965201
			c3.5547199,0,6.4062195,2.8417997,6.4062195,6.3965201C15.6444998-3.4960899,12.8027-0.654297,9.2480497-0.654297z
			 M5.6543002-7.0507798c0,0.4296899,0.3027296,0.7226596,0.7519498,0.7226596h2.0996103v2.1191401
			c0,0.43945,0.2929697,0.7421801,0.7226601,0.7421801c0.4492092,0,0.7421799-0.3027301,0.7421799-0.7421801v-2.1191401h2.1190996
			c0.4394999,0,0.7421999-0.2929697,0.7421999-0.7226596c0-0.4394503-0.3027-0.7421904-0.7421999-0.7421904H9.9707003v-2.1093698
			c0-0.4492598-0.2929707-0.7519598-0.7421799-0.7519598c-0.4296904,0-0.7226601,0.3027-0.7226601,0.7519598v2.1093698H6.40625
			C5.9570298-7.7929702,5.6543002-7.4902301,5.6543002-7.0507798z"/>
	</g>
	<g transform="matrix(1 0 0 1 281.867 1933)">
		<path d="M11.7089996,2.9101601c5.4491997,0,9.9609013-4.5214901,9.9609013-9.9609394
			c0-5.4492202-4.5215015-9.9609203-9.9707012-9.9609203c-5.4394293,0-9.951149,4.5116997-9.951149,9.9609203
			C1.7480503-1.61133,6.2695303,2.9101601,11.7089996,2.9101601z M11.7089996,1.25
			c-4.6093893,0-8.291029-3.6914101-8.291029-8.3007793c0-4.6094203,3.67187-8.3008194,8.281229-8.3008194
			c4.6093998,0,8.3106003,3.6913996,8.3106003,8.3008194C20.0098-2.4414101,16.3183994,1.25,11.7089996,1.25z M7.1777306-7.0507798
			C7.1777306-6.5722699,7.5097704-6.25,8.0078096-6.25h2.8710899v2.8808601c0,0.4882798,0.3320007,0.8300798,0.8106003,0.8300798
			c0.4882002,0,0.8299999-0.3320298,0.8299999-0.8300798V-6.25h2.8809004c0.4882994,0,0.8300991-0.3222699,0.8300991-0.8007798
			c0-0.4882803-0.3417997-0.83008-0.8300991-0.83008h-2.8809004v-2.87114c0-0.4980001-0.3417997-0.8397999-0.8299999-0.8397999
			c-0.4785995,0-0.8106003,0.3417997-0.8106003,0.8397999v2.87114H8.0078096
			C7.5097704-7.8808599,7.1777306-7.5390601,7.1777306-7.0507798z"/>
	</g>
	<g transform="matrix(1 0 0 1 305.646 1933)">
		<path d="M14.9707003,5.6640601c6.9628992,0,12.7245989-5.7617164,12.7245989-12.7148399
			c0-6.9629197-5.7714996-12.7246208-12.7343988-12.7246208c-6.9530907,0-12.70504,5.7617006-12.70504,12.7246208
			C2.2558601-0.0976562,8.01758,5.6640601,14.9707003,5.6640601z M14.9707003,3.8476601
			c-6.0351505,0-10.88867-4.8632803-10.88867-10.8984394c0-6.0449204,4.8437505-10.8984203,10.87887-10.8984203
			c6.0449991,0,10.9082003,4.8534994,10.9082003,10.8984203C25.8691006-1.01562,21.0156002,3.8476601,14.9707003,3.8476601z
			 M9.1992197-7.0507798c0,0.51758,0.3710899,0.8789001,0.9179802,0.8789001H14.0625V-2.2168
			c0,0.53711,0.3711004,0.9179699,0.8886995,0.9179699c0.5371008,0,0.9082003-0.3710899,0.9082003-0.9179699v-3.9550798h3.955101
			c0.5370998,0,0.9179001-0.36132,0.9179001-0.8789001c0-0.5468802-0.3711014-0.9179702-0.9179001-0.9179702h-3.955101v-3.9453497
			c0-0.5468006-0.3710995-0.9277-0.9082003-0.9277c-0.5175991,0-0.8886995,0.3808994-0.8886995,0.9277V-7.96875h-3.9453001
			C9.5703096-7.96875,9.1992197-7.5976601,9.1992197-7.0507798z"/>
	</g>
	<text transform="matrix(1 0 0 1 263 1953)" class="st2 st3">Design Variations</text>
	<text transform="matrix(1 0 0 1 263 1971)" class="st4 st3">Symbols are supported in up to nine weights and three scales.</text>
	<text transform="matrix(1 0 0 1 263 1989)" class="st4 st3">For optimal layout with text and other symbols, vertically align</text>
	<text transform="matrix(1 0 0 1 263 2007)" class="st4 st3">symbols with the adjacent text.</text>
	<line class="st5" x1="776" y1="1919" x2="776" y2="1933"/>
	<g transform="matrix(1 0 0 1 776 1933)">
		<path d="M3.31055,0.15625c0.51757,0,0.7714798-0.1953125,0.9570301-0.742188l1.2597599-3.4472618h5.7617598l1.2597008,3.4472618
			c0.1855993,0.5468755,0.4394999,0.742188,0.9473,0.742188c0.5175991,0,0.8495998-0.3125,0.8495998-0.800781
			c0-0.166016-0.0293007-0.322266-0.1073999-0.527349L9.6582003-13.3690996c-0.2246103-0.5957003-0.625-0.8985004-1.25-0.8985004
			c-0.6054702,0-1.0156202,0.2930002-1.2304702,0.8887005L2.5976601-1.16211c-0.07813,0.205079-0.10743,0.361329-0.10743,0.527344
			C2.4902301-0.146484,2.8027301,0.15625,3.31055,0.15625z M6.0058599-5.51758l2.3730502-6.5722198h0.0488195L10.8008003-5.51758
			H6.0058599z"/>
	</g>
	<line class="st5" x1="793.1970215" y1="1919" x2="793.1970215" y2="1933"/>
	<text transform="matrix(1 0 0 1 776 1953)" class="st2 st3">Margins</text>
	<text transform="matrix(1 0 0 1 776 1971)" class="st4 st3">Leading and trailing margins on the left and right side of each symbol</text>
	<text transform="matrix(1 0 0 1 776 1989)" class="st4 st3">can be adjusted by modifying the x-location of the margin guidelines.</text>
	<text transform="matrix(1 0 0 1 776 2007)" class="st4 st3">Modifications are automatically applied proportionally to all</text>
	<text transform="matrix(1 0 0 1 776 2025)" class="st4 st3">scales and weights.</text>
	<g transform="matrix(1 0 0 1 1289 1933)">
		<path d="M2.8418,1.86523l1.6992199,1.70899c0.8593702,0.8691399,1.8457003,0.81055,2.7734299-0.2148399L18.0077991-8.4277296
			l-0.9667988-0.9765701L6.4257798,2.2753899c-0.3515596,0.4003901-0.6835899,0.49805-1.1523399,0.0293L4.1015601,1.14258
			c-0.46875-0.458986-0.36133-0.800783,0.0390601-1.1621113L15.6152-10.8203001l-0.9765005-0.9667997L3.04688-0.898438
			C2.06055,0.0195312,1.98242,0.996094,2.8418,1.86523z M9.2578096-16.3281002
			c-0.41992,0.4101-0.4492197,0.9863005-0.2148399,1.3769007c0.2343702,0.3613997,0.6933603,0.5956993,1.3379307,0.4296999
			c1.4647999-0.3418007,2.9881992-0.4004002,4.4139996,0.5370998l-0.5859003,1.4551001
			c-0.3417997,0.8301001-0.1659994,1.4159994,0.3711004,1.9629002L16.875-8.2519503
			c0.4883003,0.4882803,0.8983994,0.5078101,1.4647999,0.4101501l1.0645008-0.1953101l0.6640987,0.6738305l-0.0390987,0.5566397
			c-0.0391006,0.4980502,0.0879002,0.8789101,0.5761986,1.35742l0.7617016,0.7421904
			c0.4784985,0.4785099,1.0936985,0.5078096,1.5625,0.0390596l2.910099-2.91992
			c0.4687996-0.4687495,0.4493008-1.0644498-0.0293007-1.5429702L25.0391006-9.89258
			c-0.4786015-0.4785204-0.8495998-0.6347198-1.3282013-0.5957203L23.1348-10.4394999L22.4902-11.0741997L22.7343998-12.1973
			c0.1268997-0.5663996-0.0293007-1.0058002-0.6152992-1.5917997l-2.1972008-2.1875
			C16.5820007-19.2968998,12.1484003-19.2187996,9.2578096-16.3281002z M10.7519999-15.9569998
			c2.4316006-1.7774,5.7226-1.4746008,7.9492006,0.7518997l2.4315987,2.4120998
			c0.2344017,0.2343998,0.2734013,0.4200001,0.205101,0.7617998l-0.3223,1.4843006L22.5195007-9.0625l0.9863987-0.0585899
			C23.7598-9.1308603,23.8379002-9.11133,24.0331993-8.9160204l0.5762005,0.5761805l-2.4414005,2.4414001l-0.5761986-0.57617
			c-0.1953011-0.1953101-0.2245998-0.2734404-0.2147999-0.5371103l0.0682983-0.9765596l-1.4940987-1.4843802L18.4277-9.21875
			c-0.3222008,0.0683603-0.4687004,0.0390596-0.7129002-0.1953096l-2.0018997-2.0019407
			c-0.2539005-0.2343998-0.2832003-0.4003992-0.1269999-0.7714996l0.8788996-2.0897999
			c-1.5625-1.4551001-3.5936995-2.080101-5.625-1.4843998C10.6836004-15.7227001,10.625-15.8495998,10.7519999-15.9569998z"/>
	</g>
	<text transform="matrix(1 0 0 1 1289 1953)" class="st2 st3">Exporting</text>
	<text transform="matrix(1 0 0 1 1289 1971)" class="st4 st3">Symbols should be outlined when exporting to ensure the</text>
	<text transform="matrix(1 0 0 1 1289 1989)" class="st4 st3">design is preserved when submitting to Xcode.</text>
	<text id="template-version" transform="matrix(1 0 0 1 2952.4140625 1933)" class="st4 st3">Template v.4.0</text>
	<text transform="matrix(1 0 0 1 2865.4575195 1951)" class="st4 st3">Requires Xcode 14 or greater</text>
	<text id="descriptive-name" transform="matrix(1 0 0 1 2865.4702148 1969)" class="st4 st3">Generated from singbox-filled</text>
	<text transform="matrix(1 0 0 1 2912.4111328 1987)" class="st4 st3">Typeset at 100 points</text>
	<text transform="matrix(1 0 0 1 263 726)" class="st4 st3">Small</text>
	<text transform="matrix(1 0 0 1 263 1156)" class="st4 st3">Medium</text>
	<text transform="matrix(1 0 0 1 263 1586)" class="st4 st3">Large</text>
</g>
<g id="Guides">
	<g id="H-reference" transform="matrix(1 0 0 1 339 696)">
		<path class="st6" d="M0.993654,0h2.6440959l25.6903496-67.1323013h0.7021999v-3.3266983h-1.9076996L0.993654,0z
			 M11.6885004-24.4799004h35.2929993l-0.75-2.2486H12.4385004L11.6885004-24.4799004z M55.1195984,0h2.6441002
			L30.6382008-70.4589996H29.4326v3.3266983L55.1195984,0z"/>
	</g>
	<line id="Baseline-S" class="st7" x1="263" y1="696" x2="3036" y2="696"/>
	<line id="Capline-S" class="st7" x1="263" y1="625.5410156" x2="3036" y2="625.5410156"/>
	<g id="H-reference_1_" transform="matrix(1 0 0 1 339 1126)">
		<path class="st6" d="M0.993654,0h2.6440959l25.6903496-67.1323013h0.7021999v-3.3266983h-1.9076996L0.993654,0z
			 M11.6885004-24.4799004h35.2929993l-0.75-2.2486H12.4385004L11.6885004-24.4799004z M55.1195984,0h2.6441002
			L30.6382008-70.4589996H29.4326v3.3266983L55.1195984,0z"/>
	</g>
	<line id="Baseline-M" class="st7" x1="263" y1="1126" x2="3036" y2="1126"/>
	<line id="Capline-M" class="st7" x1="263" y1="1055.5400391" x2="3036" y2="1055.5400391"/>
	<g id="H-reference_2_" transform="matrix(1 0 0 1 339 1556)">
		<path class="st6" d="M0.993654,0h2.6440959l25.6903496-67.1323013h0.7021999v-3.3266983h-1.9076996L0.993654,0z
			 M11.6885004-24.4799004h35.2929993l-0.75-2.2486H12.4385004L11.6885004-24.4799004z M55.1195984,0h2.6441002
			L30.6382008-70.4589996H29.4326v3.3266983L55.1195984,0z"/>
	</g>
	<line id="Baseline-L" class="st7" x1="263" y1="1556" x2="3036" y2="1556"/>
	<line id="Capline-L" class="st7" x1="263" y1="1485.5400391" x2="3036" y2="1485.5400391"/>
	<line id="left-margin-Ultralight-S" class="st5" x1="512.4609985" y1="600.7849731" x2="512.4609985" y2="720.1209717"/>
	<line id="right-margin-Ultralight-S" class="st5" x1="606.9609985" y1="600.7849731" x2="606.9609985" y2="720.1209717"/>
	<line id="left-margin-Regular-S" class="st5" x1="1401.1899414" y1="600.7849731" x2="1401.1899414" y2="720.1209717"/>
	<line id="right-margin-Regular-S" class="st5" x1="1498.4899902" y1="600.7849731" x2="1498.4899902" y2="720.1209717"/>
	<line id="left-margin-Black-S" class="st5" x1="2883" y1="600.7849731" x2="2883" y2="720.1209717"/>
	<line id="right-margin-Black-S" class="st5" x1="2983.8000488" y1="600.7849731" x2="2983.8000488" y2="720.1209717"/>
	<line id="left-margin-Regular-M" class="st5" x1="1388.0899658" y1="1030.7900391" x2="1388.0899658" y2="1150.1199951"/>
	<line id="right-margin-Regular-M" class="st5" x1="1511.5899658" y1="1030.7900391" x2="1511.5899658" y2="1150.1199951"/>
</g>
<g id="Symbols">
	<g id="Black-L" transform="matrix(1 0 0 1 2851.12 1556)">
		<path d="M84.4896164-97.2925034c4.4400101-2.3999939,9-2.3999939,13.5600052,0l40.5599976,21.8399963l-12.2399979,6.6000061
			L79.0896225-94.2925034L84.4896164-97.2925034z M80.1696243,22.3474998L35.8896179-1.8925002
			c-3.3599968-1.9200003-4.6799965-3.9600003-4.6799965-7.3200006v-48.7200012l48.8400002,26.2800026L80.1696243,22.3474998
			L80.1696243,22.3474998z M90.1296234-50.6124992L44.4096222-75.8125l13.7999992-6.2400055l45.9600029,25.0800018
			L90.1296234-50.6124992z M149.8896332-9.3324995c0,3.3599997-1.3200073,5.3999996-4.6800232,7.3199987l-44.1599884,24.1200008
			v-53.5199966l13.3199997-6.7200012v8.3999977c0,6.3600025,4.9199982,11.6400013,11.2799988,11.880003
			c6.7199936,0.3599987,12.4800034-5.0400009,12.4800034-11.7600021v-21.2399998l11.8799896-6.4799995L149.8896332-9.3324995
			L149.8896332-9.3324995z"/>
	</g>
	<g id="Heavy-L" transform="matrix(1 0 0 1 2555.07 1556)">
		<path d="M83.3082047-98.7324982c4.6800079-2.640007,9.4800034-2.640007,14.2800064,0l43.1994019,23.6399994L125.9076157-66.8125
			L75.5082092-94.2925034L83.3082047-98.7324982z M80.6682129,24.7474995L33.9882088-1.0525004
			c-3.5999985-2.04-4.9199982-4.0799994-4.9199982-7.7999997V-59.732502l51.4799995,28.0800018v56.4000015H80.6682129z
			 M90.5082092-47.9725037L39.0282097-75.5725021l20.8800011-9.9599915l50.3999939,27.4799957L90.5082092-47.9725037z
			 M150.7476196-8.9724998c0,3.6000004-1.3200073,5.7599993-4.9200134,7.7999997L99.2682114,24.5074997v-56.0400009
			l15.9593964-8.4000015v11.6400032c0,5.5200005,4.0800018,9.9599991,9.6000061,10.3199997
			c5.9999924,0.6000004,11.159996-4.2000008,11.159996-10.2000008v-23.0399971l14.7600098-8.2800026V-8.9724998z"/>
	</g>
	<g id="Bold-L" transform="matrix(1 0 0 1 2259.18 1556)">
		<path d="M81.466217-98.9458237c4.9199982-2.7599945,9.7200012-2.8800049,14.640007,0l46.5602341,25.7999954
			l-18.2399979,10.2000008L70.3062286-92.5858231L81.466217-98.9458237z M80.5062256,29.5741749L31.0662193,1.9741741
			c-3.9599991-2.2799995-5.2799988-4.4399996-5.2799988-8.2799997v-53.7600021l54.720005,30.2400017V29.5741749z
			 M88.6662216-44.345829L34.7862244-74.2258301l21.8399963-10.4399948l53.159996,29.3999977L88.6662216-44.345829z
			 M150.9464722-6.4258256c0,3.8399994-1.4400177,6-5.280014,8.2799997L96.2262268,29.3341751v-59.0400009l19.2002335-10.4400024
			v15.7200031c0,4.3199978,3.2399979,8.039999,7.5600052,8.5199986c5.1599884,0.7200003,9.6000061-3.2399979,9.6000061-8.3999996
			V-49.505825l18.4799805-10.3199997v53.3999977H150.9464722z"/>
	</g>
	<g id="Semibold-L" transform="matrix(1 0 0 1 1963.01 1556)">
		<path d="M80.2488403-102.0924988c5.0400009-2.8800049,9.8399963-3,14.8800049,0l48.9603424,27.3600006l-20.519989,11.5200005
			l-56.640358-31.3199959L80.2488403-102.0924988z M80.6088333,29.7874985L29.0088406,0.9875
			C24.8088379-1.4125,23.4888401-3.6925001,23.4888401-7.6525002v-55.7999992l57.1199951,31.9199982V29.7874985z
			 M90.2088394-44.732502l-57-31.7999916l21.8400002-11.5200119l56.6403542,31.3200035L90.2088394-44.732502z
			 M151.2891998-7.7724996c0,4.0799994-1.4400024,6.2399998-5.519989,8.6399994L94.1688385,29.5475006v-61.0800018
			l21.4803619-11.8799973v18.4799976c0,3.6000004,2.6399918,6.7199993,6.1199951,7.1999989
			c4.5600052,0.8400021,8.3999939-2.6399975,8.3999939-7.079998v-26.6399994l21.0000153-11.7599983L151.2891998-7.7724996
			L151.2891998-7.7724996z"/>
	</g>
	<g id="Medium-L" transform="matrix(1 0 0 1 1666.71 1556)">
		<path d="M74.419426-103.0525055c5.0400085-2.8799896,9.9600067-3,15,0l50.759758,28.4400101l-22.3199997,12.4799957
			L59.4194298-94.5324936L74.419426-103.0525055z M75.7394257,31.3474998L22.5794296,1.7074999
			c-4.3199997-2.52-5.6400013-4.8000002-5.6400013-8.8799992v-57.2399979l58.6800003,33v62.7599983H75.7394257z
			 M82.9394302-43.0524979L24.139431-76.0525055l22.2000008-11.5199966l59.1597595,31.6800003L82.9394302-43.0524979z
			 M146.5391846-7.4125004c0,4.1999998-1.4399872,6.3600001-5.6399994,8.8800001L87.859436,31.1075001v-62.6399994
			l23.1597519-12.9599991v20.6400013c0,3,2.159996,5.7599983,5.159996,6.2399979
			c4.0800018,0.8400021,7.5600052-2.1599979,7.5600052-6.1200008v-27.8400002l22.9200058-12.9599991v57.1200027H146.5391846z"/>
	</g>
	<g id="Regular-L" transform="matrix(1 0 0 1 1370.57 1556)">
		<path d="M74.4695053-104.3725052c5.1600037-3,10.0800018-3.1199951,15.2400055,0l53.0404739,30l-24.7200012,13.6800041
			L57.1895065-94.652504L74.4695053-104.3725052z M76.989502,33.3875008L21.9095058,2.4274998
			C17.3495064-0.2125,16.0295067-2.6125007,16.0295067-6.8125005v-59.1600037L76.989502-31.5325012V33.3875008z
			 M81.9095078-38.8525009L20.9495068-73.1725006l29.1599979-15.7200012l61.2004852,33.7200012L81.9095078-38.8525009z
			 M148.1499939-6.9324999c0,4.3199992-1.3200073,6.5999999-5.8800201,9.2399998L87.1895065,33.267498v-64.6799927
			l25.4404755-14.2800026v23.4000015c0,2.2799988,1.4400101,4.3199997,3.6000061,5.0400009
			c3.3600006,0.9599991,6.4799957-1.5600014,6.4799957-4.920002v-29.2799988l25.4400101-14.2799988V-6.9324999
			L148.1499939-6.9324999z"/>
	</g>
	<g id="Light-L" transform="matrix(1 0 0 1 1074.4 1556)">
		<path d="M75.4522476-106.0525055c4.3199921-2.5199966,8.5199966-2.6399918,12.7199936,0l57.3597565,32.0400085l-27.1199951,15
			L54.2122421-94.4124985L75.4522476-106.0525055z M78.0922394,35.3074989L20.6122437,3.6274998
			c-4.9200001-2.7599998-6-5.04-6-9.2400007v-61.6800041l63.4799957,35.2800064V35.3074989z M16.8922424-73.5324936
			l31.1999969-17.640007l63.1197586,36L81.3322449-38.3725014L16.8922424-73.5324936z M149.2519989-5.7325001
			c0,4.3200002-1.1999969,6.4799995-6,9.2399998L85.7722397,35.1875v-67.1999969l27.9597626-15.4800034v26.1599998
			c0,1.7999992,1.3200073,3.3600006,3,3.7199993c2.5200043,0.6000004,4.6800003-1.1999989,4.6800003-3.7199993v-30.6000023
			l27.9599915-15.4799957v61.6800003H149.2519989z"/>
	</g>
	<g id="Thin-L" transform="matrix(1 0 0 1 778.505 1556)">
		<path d="M76.3855591-108.452507c3-1.7999954,6.3600006-1.7999954,9.3600006,0l63.0002441,34.8000031l-30.6000061,16.5600052
			L50.1055603-93.9324951L76.3855591-108.452507z M79.3855591,37.9475021L18.6655579,5.0674996
			C13.3855591,2.1875,12.545558,0.1474997,12.545558-4.1724997v-65.0400009l66.840004,36.3600006V37.9475021z
			 M15.4255581-74.1324997L46.0255585-90.8125l66.7202377,36L81.7855606-37.4124985L15.4255581-74.1324997z M150.5457916-4.1724997
			c0,4.3199992-0.8399963,6.3599997-6,9.2399998L83.7055588,37.8274994V-32.732502l31.2002411-16.9199982v29.8800011
			c0,1.1999989,0.9599991,2.0399971,2.0400009,2.1599979c1.3199997,0,2.2799988-0.9599991,2.2799988-2.1599979v-32.2799988
			l31.1999969-16.9200058v64.8000183C150.4257965-4.1724882,150.5457916-4.1724882,150.5457916-4.1724997z"/>
	</g>
	<g id="Ultralight-L" transform="matrix(1 0 0 1 485.519 1556)">
		<path d="M66.7952805-109.5324936c2.4000015-1.4400101,5.159996-1.4400101,7.5599976,0l65.8801193,36.2399902
			l-32.159996,17.2800064L37.9952774-93.6924973L66.7952805-109.5324936z M69.9152832,39.267498L7.5152793,5.9074998
			C1.99528,3.0274997,1.39528,0.9875,1.39528-3.3325v-66.7200089l68.5200043,36.9600067V39.267498z M2.1152804-73.0525055
			l33.6000023-18.7199936l69.6000061,37.7999954l-34.4400101,18.720005L2.1152804-73.0525055z M141.0753937-3.4525003
			c0,4.3200006-0.6000061,6.3600001-6.1199951,9.2399998L72.555275,39.0275002v-72.1199951l33-17.7600021v31.8000011
			c0.1200027,0.8399982,0.840126,1.3199978,1.5601273,1.3199978c0.7199936-0.2399979,1.0800018-0.7199974,1.0800018-1.4399986
			v-33.1199989l33-17.760006L141.0753937-3.4525003L141.0753937-3.4525003z"/>
	</g>
	<g id="Black-M" transform="matrix(1 0 0 1 2869.28 1126)">
		<path d="M67.9602814-85.0525055c3.1200027-1.6799927,6.4800034-1.6799927,9.5999985,0l29.8800049,15.7200012l-7.5599976,3.9599991
			L65.320282-83.7324982L67.9602814-85.0525055z M63.2802811,4.7075L30.7602844-12.9324999
			c-2.3999996-1.3200006-3.3600006-2.8800011-3.3600006-5.2800016v-36.1199989l36,18.8400002L63.2802811,4.7075L63.2802811,4.7075z
			 M73.0002823-50.9725037L37.9602852-69.3325043l8.279995-4.6799927l35.2800064,18.239994L73.0002823-50.9725037z
			 M117.0403976-18.3325005c0,2.3999996-0.9599915,3.960001-3.3601074,5.2799997L81.0402832,4.4674997v-39.8400002
			l8.4000015-3.9599991v3.9599991c0,5.6399994,4.5599976,10.2000008,10.1999969,10.3200016
			c5.7600021,0,10.4400024-4.4400005,10.4400024-10.1999989v-15l6.9601135-3.720005V-18.3325005z"/>
	</g>
	<g id="Heavy-M" transform="matrix(1 0 0 1 2573.14 1126)">
		<path d="M66.8856506-86.3725052c3.4800034-1.9199982,6.9600067-1.9199982,10.5600052,0l31.9199982,17.2800064
			l-9.8399963,5.3999977L62.205658-83.8525009L66.8856506-86.3725052z M63.7656555,6.8674998L29.0856552-12.0924997
			c-2.6399994-1.4400005-3.6000004-3-3.6000004-5.6400023v-38.0400009l38.2799988,20.5200043V6.8674998z M71.8056564-49.4124985
			L37.6056557-68.8525009l10.079998-5.159996l34.1999969,19.4399948L71.8056564-49.4124985z M117.7651672-17.9724998
			c0,2.6399984-1.0799866,4.1999998-3.5995102,5.6400003L79.4856567,6.7474999v-41.8800011l10.6800003-5.4000015v6.9600029
			c0,4.7999992,3.7199936,8.7599983,8.5199966,8.8799973c5.0400085,0.3600006,9.3600006-3.7199993,9.3600006-8.8799973v-16.6800003
			l9.5995178-5.2800026v37.5600014H117.7651672z"/>
	</g>
	<g id="Bold-M" transform="matrix(1 0 0 1 2276.99 1126)">
		<path d="M64.9717941-86.1058197c3.8399963-2.1600037,7.5600052-2.1600037,11.5199966,0l34.3199997,18.9599915
			L98.211792-60.1858253L58.131794-82.1458282L64.9717941-86.1058197z M63.6517944,11.0941744L26.6917934-9.4258261
			c-2.8799992-1.6799994-3.960001-3.3599997-3.960001-6.2399998v-40.2000008l40.920002,22.5599976V11.0941744z
			 M69.8917923-44.9458275L30.2917938-66.6658249l15.9600029-8.7600021l39.5999947,21.840004L69.8917923-44.9458275z
			 M118.011673-15.7858257c0,2.8799992-1.0799942,4.5599995-3.959877,6.2400007L77.211792,10.9741745v-44.2800026
			l13.3200073-7.1999969v10.3199997c0,3.8400002,2.8799896,7.079998,6.7199936,7.4400005
			c4.4399948,0.6000004,8.2800064-2.8799992,8.2800064-7.3200016v-18.5999985l12.5998764-7.0800018v39.9599991H118.011673z"/>
	</g>
	<g id="Semibold-M" transform="matrix(1 0 0 1 1980.77 1126)">
		<path d="M63.6641197-88.8925018c4.0800056-2.2799988,8.0399971-2.4000015,12.1199989,0l35.8800049,20.0400009L97.264122-60.8125
			L55.1441231-84.0924988L63.6641197-88.8925018z M63.4241219,10.9474993L24.9041195-10.6525002
			c-3.119997-1.8000002-4.0799999-3.6000004-4.0799999-6.5999985v-41.6400032l42.720005,23.8800049L63.4241219,10.9474993
			L63.4241219,10.9474993z M69.6641235-45.8125l-42-22.4400024l17.7600002-10.3199997l43.3200035,22.5600052L69.6641235-45.8125z
			 M118.0239944-17.2524986c0,2.9999981-1.1999969,4.7999983-4.0798721,6.5999985L75.4241257,10.9474993v-45.8400002
			l15.1199951-8.3999977v12.5999985c0,3.2400017,2.2800064,6,5.5199966,6.3600006
			c3.9600067,0.7199993,7.4400024-2.4000015,7.4400024-6.2399998v-19.9200001l14.6398849-8.2800026L118.0239944-17.2524986
			L118.0239944-17.2524986z"/>
	</g>
	<g id="Medium-M" transform="matrix(1 0 0 1 1684.38 1126)">
		<path d="M57.999958-89.7324982c4.3199997-2.4000015,8.2800026-2.5200043,12.6000023,0l37.0800018,21l-15.840004,8.8799973
			L48.3999596-84.0924988L57.999958-89.7324982z M58.5999565,12.2674999L18.8799572-10.1724997
			c-3.2399979-1.9200001-4.3199997-3.7200003-4.3199997-6.8400011v-42.9600029l44.0400009,24.840004V12.2674999z
			 M63.3999596-44.1324997L21.7599564-67.5325012l19.2000008-10.5599976L83.4399567-54.8125L63.3999596-44.1324997z
			 M113.4395981-17.1325016c0,3.2400017-1.1999969,4.920001-4.3199997,6.8400011L69.3999557,12.1475v-47.159996
			l16.4400024-9.2400017v14.2799988c0,2.6399994,1.7999954,5.1599998,4.5599976,5.5200005
			c3.6000061,0.8399982,6.8399963-1.9200001,6.8399963-5.5200005V-50.732502l16.199646-9.2400017V-17.1325016z"/>
	</g>
	<g id="Regular-M" transform="matrix(1 0 0 1 1388.09 1126)">
		<path d="M58.0215912-90.6924973c4.5599976-2.6399994,8.7600021-2.6399994,13.1999969,0l38.640007,21.9599991l-17.640007,9.9599953
			L46.8615913-84.3324966L58.0215912-90.6924973z M59.8215904,13.9474993L18.5415916-9.5724993
			c-3.3600016-2.0400009-4.5600023-3.8400011-4.5600023-7.1999998v-44.4000015l45.8400002,26.2799988V13.9474993z
			 M64.9815903-43.4124985L21.5415916-68.6124954l17.8799973-10.4400101L85.0215836-53.732502L64.9815903-43.4124985z
			 M115.0215836-16.7724991c0,3.3599987-1.1999969,5.1599989-4.5599899,7.1999998L69.1815872,13.8274994v-48.7200012
			l18.2399979-10.4399986v16.5600014c0,2.0399971,1.3200073,3.9599991,3.2400055,4.5599976
			c3.1200027,0.9600029,6.1200027-1.4399986,6.1200027-4.4399986v-21.9599991l18.2399902-10.4399986V-16.7724991z"/>
	</g>
	<g id="Light-M" transform="matrix(1 0 0 1 1091.9 1126)">
		<path d="M58.9000015-92.2525024c3.7200012-2.1601181,7.3199997-2.2801208,10.9200058,0l42.4799881,23.8799973
			L92.3801193-57.3326187L44.2601204-83.9725037L58.9000015-92.2525024z M60.8199997,15.7474403L17.3801212-8.4925003
			c-3.5999994-2.1599998-4.5601177-3.96-4.5601177-7.1999998v-46.6800003l47.9999962,27V15.7474403z M116.0200043-15.812501
			c0,3.3601208-0.9599991,5.0400009-4.5600052,7.2000008L67.8998795,15.5074997v-51l20.5200043-11.4000015V-27.8125
			c0,1.6799984,1.0799942,3,2.6398773,3.4799995c2.4000015,0.5999985,4.4400024-1.0799999,4.4400024-3.3600006v-23.1599998
			l20.5202408-11.5200005V-15.812501L116.0200043-15.812501z M84.6999969-53.8525009L64.4199982-42.932621L18.2200031-69.0926208
			l20.16012-11.1601181L84.6999969-53.8525009z"/>
	</g>
	<g id="Thin-M" transform="matrix(1 0 0 1 795.884 1126)">
		<path d="M59.7479095-94.2925034c2.6400032-1.5599976,5.4000015-1.5599976,7.9200058,0l47.5204773,26.4000015
			L92.2679062-55.4124985L40.5479126-83.6124954L59.7479095-94.2925034z M62.0279121,18.0275002L15.7079124-7.1724997
			c-3.9599991-2.1599998-4.6800003-3.8400011-4.6800003-7.1999998v-49.6800003l51,27.9599991V18.0275002z M12.7079124-68.1324997
			l23.6399994-12.5999985L87.347908-52.5325012L64.7879105-39.9325027L12.7079124-68.1324997z M117.1083908-14.3724995
			c0,3.3599987-0.7200012,5.04-4.6800003,7.1999998l-46.3204803,25.079998v-53.8800049L89.6279144-48.8125v22.3199997
			c0,1.0799999,0.8399963,1.7999992,1.7999954,2.0400009c1.3199997,0.1199989,2.2800064-0.8400002,2.2800064-2.0400009v-24.5999985
			l23.5204697-12.840004L117.1083908-14.3724995L117.1083908-14.3724995z"/>
	</g>
	<g id="Ultralight-M" transform="matrix(1 0 0 1 500.783 1126)">
		<path d="M54.806797-95.3725052c2.0399971-1.1999969,4.3199997-1.1999969,6.3600006,0l50.1593895,27.6000061L86.9666748-54.5725021
			L33.3267937-83.4925003L54.806797-95.3725052z M57.2067986,19.2275009L9.4467955-6.4525003
			c-4.2000012-2.2799997-4.6800008-3.8400002-4.6800008-7.1999998v-51.1199989l52.5599976,28.4399986L57.2067986,19.2275009
			L57.2067986,19.2275009z M5.4867954-68.1324997L30.806797-82.0525055l53.1599922,29.4000053L58.7667961-39.2124977
			L5.4867954-68.1324997z M112.406189-13.6525002c0,3.3599997-0.4799957,4.9200001-4.6793976,7.1999998L59.8467941,19.1075001
			v-55.4400024l24.9599991-13.5600014v24.0000019c0,0.7199993,0.7200012,1.1999989,1.3199997,1.1999989
			c0.7200012-0.1199989,1.2000046-0.5999985,1.2000046-1.3199997v-25.3199997l24.9593964-13.5600014v51.2400017H112.406189z"/>
	</g>
	<g id="Black-S" transform="matrix(1 0 0 1 2883 696)">
		<path d="M55.3755989-70.4925003c2.2799988-1.1999969,4.7999992-1.1999969,7.2000008,0l23.0399933,12l-5.2799988,2.7599983
			L53.6955986-69.652504L55.3755989-70.4925003z M51.2955971-1.0125005L26.2155972-14.4524994
			c-1.7999992-0.960001-2.5200005-2.0400009-2.5200005-3.960001v-27.8399982l27.6000004,14.2799969V-1.0125005z
			 M58.9755974-44.6925011L32.335598-58.6124992l6-3.1200027l26.7599983,13.7999992L58.9755974-44.6925011z M93.2956009-18.5325012
			c0,1.7999992-0.7200012,3-2.5200043,3.9600019L65.6955948-1.1324999V-31.852499l6-2.6400013v2.4000015
			c0,4.6799984,3.7200012,8.3999977,8.4000015,8.3999977c4.5600052,0,8.4000015-3.7199993,8.4000015-8.3999977v-11.4000015
			l4.8000031-2.5199966V-18.5325012z"/>
	</g>
	<g id="Heavy-S" transform="matrix(1 0 0 1 2586.68 696)">
		<path d="M54.3992653-71.452507c2.6399994-1.4399948,5.3999977-1.4399948,8.159996,0l24.239994,12.9600067l-7.0799866,3.8400002
			L51.3992653-69.8925018L54.3992653-71.452507z M51.5192604,0.6675001L24.9992638-13.852499
			c-2.0400009-1.0800018-2.7600021-2.3999996-2.7600021-4.3200016v-29.2799988L51.5192604-31.732502V0.6675001z
			 M58.4792671-43.2524986L30.0392628-58.4925003l7.6799984-4.2000008l28.4400024,15.1199989L58.4792671-43.2524986z
			 M93.8792572-18.2924995c0,2.0400009-0.8399963,3.2400007-2.7599945,4.3199997L64.4792633,0.5474997v-32.1599998
			l7.6800003-3.8400002v4.5599995c0,3.9599991,3.1199951,7.3199997,7.0800018,7.4400005
			c4.1999969,0.2399979,7.6800003-3.1200008,7.6800003-7.3200035v-12.5999985l6.8399963-3.7199974L93.8792572-18.2924995
			L93.8792572-18.2924995z"/>
	</g>
	<g id="Bold-S" transform="matrix(1 0 0 1 2290.45 696)">
		<path d="M52.662468-70.5858231c3.1199989-1.6800003,6.239994-1.8000031,9.3599968,0l25.6799965,14.1599998l-9,5.0400009
			L48.2224655-68.1858215L52.662468-70.5858231z M51.2224655,4.2941747L23.0224667-11.4258251
			c-2.1600018-1.3199997-3-2.6400003-3-4.7999992v-30.8400021l31.1999989,17.2800026V4.2941747z M57.2224655-39.7458267
			L26.9824657-56.4258232l9.4800014-5.2800026L66.822464-45.0258255L57.2224655-39.7458267z M93.822464-16.3458252
			c0,2.1599989-0.8399963,3.6000004-3,4.8000002L62.622467,4.1741743v-33.8400002l9.5999985-5.1599998v7.0799999
			c0,3.2399979,2.3999939,6,5.6399994,6.2399979c3.7200012,0.4800014,6.9599991-2.5199986,6.9599991-6.119997v-14.0400009
			l9-5.0400009V-16.3458252z"/>
	</g>
	<g id="Semibold-S" transform="matrix(1 0 0 1 1994.05 696)">
		<path d="M51.4601669-73.1324997c3.4799995-1.9200058,6.7200012-1.9200058,10.0800018,0l26.7599945,15l-10.4399948,5.8800011
			L46.0601654-70.1324997L51.4601669-73.1324997z M50.9801674,3.7874999L21.7001667-12.7725
			c-2.2799988-1.3199997-3.2399998-2.7600012-3.2399998-5.1600008V-49.732502l32.5200005,18.2400017V3.7874999z
			 M56.5001678-40.4925003L24.8201675-58.2524986l10.7999992-6.1200066l31.6800041,17.760006L56.5001678-40.4925003z
			 M93.8201675-18.0524998c0,2.4000006-0.9599991,3.7199984-3.2400055,5.1599998L61.3001671,3.6675v-35.0400009l10.920002-6.1199989
			v8.7599983c0,2.7600021,1.9199982,5.1600018,4.5599976,5.5200005c3.4800034,0.6000004,6.4800034-2.0399971,6.4800034-5.3999996
			v-14.9999981l10.5599976-6V-18.0524998z"/>
	</g>
	<g id="Medium-S" transform="matrix(1 0 0 1 1697.56 696)">
		<path d="M45.5849686-73.7324982c3.7199974-2.0400009,7.079998-2.1600037,10.6799965,0l27.4799995,15.5999985
			l-11.3999939,6.4799995L39.4649658-70.2525024L45.5849686-73.7324982z M45.9449692,4.7474999L15.8249674-12.5325012
			c-2.3999996-1.4399986-3.3599987-2.8799992-3.3599987-5.3999996v-32.6399994l33.4799995,19.0800018V4.7474999z
			 M50.9849701-39.6525002L18.224968-58.1324997l11.7600021-6.7200012l32.7599983,18.6000023L50.9849701-39.6525002z
			 M88.9049683-17.9325008c0,2.3999996-0.9599991,3.960001-3.3600006,5.3999996L55.4249687,4.6274996v-35.8799973
			l11.8800011-6.720005v10.0800037c0,2.2799988,1.5599976,4.4400005,3.8399963,4.9200001
			c3.2399979,0.7200012,6.1200027-1.6800003,6.1200027-4.7999992v-15.7200012l11.7600021-6.7199974L88.9049683-17.9325008
			L88.9049683-17.9325008z"/>
	</g>
	<g id="Regular-S" transform="matrix(1 0 0 1 1401.19 696)">
		<path d="M45.7615852-74.452507c3.9600029-2.2799911,7.5600014-2.3999939,11.5201225,0l28.4398727,16.4400101
			l-12.7198792,7.3199959L38.6815872-70.2525024L45.7615852-74.452507z M47.0815887,5.9474998L15.7615871-12.0524988
			c-2.5200005-1.5600014-3.4799995-3.1200008-3.4799995-5.6400023v-33.7199974l34.8000031,20.1599998V5.9474998z
			 M51.5215874-38.5725021L17.4415855-58.0124969l12.9601212-7.5600052l34.079998,19.6800003L51.5215874-38.5725021z
			 M90.2817078-17.8125c0,2.6400003-1.0800018,4.079999-3.4800034,5.6400003l-31.3199997,18v-37.079998l13.2000046-7.6800041
			v11.7600021c0,1.8000011,1.0800018,3.6000004,2.8799973,4.0799999c2.8800049,0.9599991,5.5199966-1.1999989,5.5199966-3.9599991
			V-43.732502l13.2000046-7.6799965V-17.8125z"/>
	</g>
	<g id="Light-S" transform="matrix(1 0 0 1 1104.93 696)">
		<path d="M46.6980095-75.7724991c3.2399979-1.9199982,6.2399979-1.9199982,9.4799995,0l31.8000031,17.9999962
			l-14.7600098,8.2800026L36.4980087-70.0124969L46.6980095-75.7724991z M48.1380081,7.5074997L14.8980083-11.2125006
			c-2.7599993-1.6799994-3.6000004-3.1200008-3.6000004-5.6399984v-35.6399994L48.1380081-31.732502V7.5074997z
			 M51.9780083-37.8525009L15.1380091-58.732502l15.8399992-8.0399971l36.7199974,20.5200005L51.9780083-37.8525009z
			 M91.3380051-16.852499c0,2.6399984-0.8399963,3.9599991-3.5999985,5.6399984L54.4980087,7.3874998V-31.732502
			l15.2399979-8.5199966v13.9199982c0,1.4400005,0.9599991,2.7600002,2.2799988,3.1199989
			c2.1600037,0.6000004,4.0800018-0.9599991,4.0800018-3v-17.6399994l15.2399979-8.6399994V-16.852499z"/>
	</g>
	<g id="Thin-S" transform="matrix(1 0 0 1 808.842 696)">
		<path d="M47.4701958-77.5725021c2.279995-1.3199997,4.5599976-1.3199997,6.8400002,0l36.3600006,20.1600037L73.270195-47.9325027
			L33.3101959-69.7724991L47.4701958-77.5725021z M49.270195,9.5474997L13.390193-10.0125008
			c-3.1199999-1.6799994-3.5999994-3-3.5999994-5.6399984v-38.2800026l39.4800034,21.720005V9.5474997z M12.9101934-57.8925018
			l16.2000008-9l39.1200027,21.1199989l-16.7999992,9L12.9101934-57.8925018z M92.470192-15.6524992
			c0,2.6399984-0.5999985,3.9599991-3.5999985,5.6399984L52.9901924,9.5474997v-41.6399994l17.8800011-9.840004v16.920002
			c0,0.960001,0.7200012,1.6800003,1.5599976,1.7999992c1.1999969,0.2400017,2.1600037-0.7199993,2.1600037-1.7999992v-18.9600029
			L92.470192-53.8125V-15.6524992z"/>
	</g>
	<g id="Ultralight-S" transform="matrix(1 0 0 1 512.461 696)">
		<path d="M45.3409958-78.5324936c1.7999992-1.0800018,3.7200012-1.0800018,5.3999977,0l38.6400032,21.239994L70.6609955-47.0924988
			L29.0209961-69.652504L45.3409958-78.5324936z M47.140995,10.6274996L10.0609961-9.4125004
			c-3.2399993-1.8000002-3.7199988-3-3.7199988-5.6399984v-39.720005L47.140995-32.5725021V10.6274996z M6.7009964-57.2924995
			l19.6800003-10.7999992L67.901001-45.6525002L47.9809952-34.8525009L6.7009964-57.2924995z M90.3409958-15.0524988
			c0,2.6399984-0.4800034,3.8399982-3.7200012,5.6399984l-37.079998,19.9200001v-43.0800018l19.2000008-10.4399948v18.3599968
			c0,0.7199993,0.5999985,1.0799999,1.1999969,1.2000008c0.7200012,0,1.1999969-0.4800014,1.1999969-1.2000008v-19.6800003
			l19.2000046-10.4400024V-15.0524988z"/>
	</g>
</g>
</svg>
